<svg width="19" height="19" viewBox="0 0 19 19" fill="none" xmlns="http://www.w3.org/2000/svg">
<path d="M13.2212 14.4577L14.3904 13.2885C14.484 13.1955 14.5308 13.0869 14.5308 12.9629C14.5308 12.8389 14.484 12.7301 14.3904 12.6366L10.7884 9.01923C10.8743 8.82948 10.9388 8.63172 10.9817 8.42595C11.0246 8.22018 11.0461 7.99102 11.0461 7.73845C11.0461 6.82287 10.7199 6.0398 10.0675 5.38925C9.41506 4.73872 8.62973 4.41345 7.7115 4.41345C7.4474 4.41345 7.19003 4.44586 6.9394 4.51068C6.68877 4.57549 6.4455 4.66552 6.2096 4.78075L8.42498 7.00575L6.94805 8.48268L4.71345 6.25768C4.59935 6.49229 4.5096 6.73684 4.4442 6.99133C4.37882 7.24581 4.34613 7.5051 4.34613 7.7692C4.34613 8.68743 4.67234 9.47276 5.32478 10.1252C5.97719 10.7776 6.76252 11.1038 7.68075 11.1038C7.91593 11.1038 8.13755 11.0807 8.3456 11.0346C8.55365 10.9884 8.75896 10.9256 8.96153 10.8461L12.5789 14.4481C12.6724 14.5417 12.7795 14.5901 12.9 14.5933C13.0205 14.5965 13.1276 14.5513 13.2212 14.4577ZM9.50165 19C8.18772 19 6.95268 18.7506 5.79655 18.252C4.6404 17.7533 3.63472 17.0765 2.7795 16.2217C1.92427 15.3669 1.24721 14.3616 0.748325 13.206C0.249442 12.0504 0 10.8156 0 9.50165C0 8.18772 0.249334 6.95268 0.748 5.79655C1.24667 4.6404 1.92342 3.63472 2.77825 2.7795C3.6331 1.92427 4.63834 1.24721 5.79398 0.748326C6.94959 0.249443 8.18437 0 9.4983 0C10.8122 0 12.0473 0.249334 13.2034 0.748001C14.3596 1.24667 15.3652 1.92342 16.2205 2.77825C17.0757 3.6331 17.7527 4.63834 18.2516 5.79398C18.7505 6.94959 19 8.18437 19 9.4983C19 10.8122 18.7506 12.0473 18.252 13.2034C17.7533 14.3596 17.0765 15.3652 16.2217 16.2205C15.3669 17.0757 14.3616 17.7527 13.206 18.2516C12.0504 18.7505 10.8156 19 9.50165 19Z" fill="#00B38A"/>
</svg>
