<svg width="19" height="19" viewBox="0 0 19 19" fill="none" xmlns="http://www.w3.org/2000/svg">
<path d="M12.9731 14.0269L14.0269 12.9731L10.2499 9.1959V4.49998H8.75V9.80383L12.9731 14.0269ZM9.50165 19C8.18772 19 6.95268 18.7506 5.79655 18.2519C4.6404 17.7533 3.63472 17.0765 2.7795 16.2217C1.92427 15.3669 1.24721 14.3616 0.748325 13.206C0.249442 12.0504 0 10.8156 0 9.50165C0 8.18772 0.249333 6.95268 0.748 5.79655C1.24667 4.6404 1.92342 3.63472 2.77825 2.7795C3.6331 1.92427 4.63834 1.24721 5.79397 0.748326C6.94959 0.249443 8.18437 0 9.4983 0C10.8122 0 12.0473 0.249334 13.2034 0.748001C14.3596 1.24667 15.3652 1.92342 16.2204 2.77825C17.0757 3.6331 17.7527 4.63834 18.2516 5.79398C18.7505 6.94959 19 8.18437 19 9.4983C19 10.8122 18.7506 12.0473 18.2519 13.2034C17.7533 14.3595 17.0765 15.3652 16.2217 16.2204C15.3669 17.0757 14.3616 17.7527 13.206 18.2516C12.0504 18.7505 10.8156 19 9.50165 19Z" fill="#00B38A"/>
</svg>
